<svg width="18" height="15" viewBox="0 0 18 15" fill="none" xmlns="http://www.w3.org/2000/svg">
<path d="M12.9152 13.5359C12.7182 13.5359 12.5292 13.4589 12.3899 13.3219C12.2506 13.1849 12.1723 12.9991 12.1723 12.8054H10.6865C10.6865 13.3866 10.9213 13.944 11.3393 14.3549C11.7572 14.7659 12.3241 14.9968 12.9152 14.9968C13.5063 14.9968 14.0732 14.7659 14.4911 14.3549C14.9091 13.944 15.1439 13.3866 15.1439 12.8054H13.6581C13.6581 12.9991 13.5798 13.1849 13.4405 13.3219C13.3012 13.4589 13.1122 13.5359 12.9152 13.5359Z" fill="white"/>
<path d="M7.6878 13.5359C7.49077 13.5359 7.30181 13.4589 7.16249 13.3219C7.02317 13.1849 6.9449 12.9991 6.9449 12.8054H5.45215C5.45215 13.0936 5.50988 13.379 5.62204 13.6452C5.73421 13.9115 5.89861 14.1534 6.10587 14.3572C6.31312 14.561 6.55917 14.7226 6.82996 14.8329C7.10075 14.9432 7.39098 15 7.68408 15C7.97718 15 8.26742 14.9432 8.53821 14.8329C8.809 14.7226 9.05504 14.561 9.2623 14.3572C9.46955 14.1534 9.63396 13.9115 9.74612 13.6452C9.85829 13.379 9.91602 13.0936 9.91602 12.8054H8.43023C8.43023 12.9991 8.35202 13.1848 8.2128 13.3218C8.07358 13.4587 7.88474 13.5357 7.6878 13.5359Z" fill="white"/>
<path d="M17.3793 1.4506C17.3388 1.44382 17.2978 1.44046 17.2568 1.44056H5.37045C5.17342 1.44056 4.98446 1.51751 4.84514 1.6545C4.70582 1.79148 4.62756 1.97728 4.62756 2.17101C4.62756 2.36473 4.70582 2.55053 4.84514 2.68751C4.98446 2.8245 5.17342 2.90146 5.37045 2.90146H16.3797L16.1833 4.06013L15.1418 10.206H5.45078L2.92493 4.06013L1.41825 0.426142C1.33857 0.255187 1.19491 0.121032 1.01717 0.0516049C0.839425 -0.0178226 0.641297 -0.0171737 0.464028 0.0534166C0.286759 0.124007 0.144008 0.2591 0.0654911 0.430573C-0.0130262 0.602046 -0.02126 0.796688 0.0425037 0.97398L2.44809 6.77786L4.08989 11.0565C4.21107 11.4167 4.46133 11.6669 4.82257 11.6669H15.771C15.9469 11.6669 16.1171 11.6056 16.2514 11.4939C16.3856 11.3821 16.4752 11.2271 16.5041 11.0565L17.69 4.06013L17.9899 2.29107C18.0223 2.10001 17.9761 1.90414 17.8616 1.74653C17.7471 1.58891 17.5736 1.48247 17.3793 1.4506Z" fill="white"/>
</svg>
