<svg width="12" height="7" viewBox="0 0 12 7" fill="none" xmlns="http://www.w3.org/2000/svg">
<path d="M11.0273 5.21582L6.52734 0.71582C6.38672 0.575195 6.21094 0.504883 6 0.504883C5.78906 0.504883 5.61328 0.575195 5.47266 0.71582L0.972656 5.21582C0.820312 5.36816 0.744141 5.5498 0.744141 5.76074C0.744141 5.95996 0.820312 6.12988 0.972656 6.27051C1.11328 6.42285 1.28906 6.49902 1.5 6.49902C1.71094 6.49902 1.88672 6.42285 2.02734 6.27051L6 2.31543L9.97266 6.27051C10.1133 6.42285 10.2891 6.49902 10.5 6.49902C10.7109 6.49902 10.8867 6.42285 11.0273 6.27051C11.1797 6.12988 11.2559 5.95996 11.2559 5.76074C11.2559 5.5498 11.1797 5.36816 11.0273 5.21582Z" fill="#212529"/>
</svg>
