<svg width="18" height="13" viewBox="0 0 18 13" fill="none" xmlns="http://www.w3.org/2000/svg">
<path d="M1.5 7.5H16.5C16.7344 7.5 16.9297 7.42188 17.0859 7.26562C17.2552 7.09635 17.3398 6.89453 17.3398 6.66016C17.3398 6.4388 17.2552 6.25 17.0859 6.09375C16.9297 5.92448 16.7344 5.83984 16.5 5.83984H1.5C1.26562 5.83984 1.0638 5.92448 0.894531 6.09375C0.738281 6.25 0.660156 6.4388 0.660156 6.66016C0.660156 6.89453 0.738281 7.09635 0.894531 7.26562C1.0638 7.42188 1.26562 7.5 1.5 7.5ZM1.5 2.5H16.5C16.7344 2.5 16.9297 2.42188 17.0859 2.26562C17.2552 2.09635 17.3398 1.89453 17.3398 1.66016C17.3398 1.4388 17.2552 1.25 17.0859 1.09375C16.9297 0.924479 16.7344 0.839844 16.5 0.839844H1.5C1.26562 0.839844 1.0638 0.924479 0.894531 1.09375C0.738281 1.25 0.660156 1.4388 0.660156 1.66016C0.660156 1.89453 0.738281 2.09635 0.894531 2.26562C1.0638 2.42188 1.26562 2.5 1.5 2.5ZM1.5 12.5H16.5C16.7344 12.5 16.9297 12.4219 17.0859 12.2656C17.2552 12.0964 17.3398 11.8945 17.3398 11.6602C17.3398 11.4388 17.2552 11.25 17.0859 11.0938C16.9297 10.9245 16.7344 10.8398 16.5 10.8398H1.5C1.26562 10.8398 1.0638 10.9245 0.894531 11.0938C0.738281 11.25 0.660156 11.4388 0.660156 11.6602C0.660156 11.8945 0.738281 12.0964 0.894531 12.2656C1.0638 12.4219 1.26562 12.5 1.5 12.5Z" fill="#212529"/>
</svg>
