<!-- Generated by IcoMoon.io -->
<svg version="1.1" xmlns="http://www.w3.org/2000/svg" width="1024" height="1024" viewBox="0 0 1024 1024">
<title></title>
<g id="icomoon-ignore">
</g>
<path fill="#ffb800" d="M1020.672 371.667c-3.337-10.667-9.335-19.333-17.997-26-8.004-6.666-17.34-10.667-28.006-12l-295.996-26-117-274c-4-10-10.667-18-20-24s-19.333-9-30-9c-10.667 0-20.667 3-30 9s-16 14-20 24l-117 274-296 26c-10.667 1.333-20.333 5.333-29 12-8 6.667-13.667 15.334-17 26-3.333 10-3.667 20.333-1 31s8.333 19.667 17 27l223 196-66 290.003c-2 10.667-1.334 21.001 2 31.002 4 9.993 10.333 18.33 18.999 24.994 4.667 3.337 9.667 5.666 15 7.006 6.001 1.997 11.667 2.995 17 2.995 4.667 0 9.334-0.666 14-1.997 5.333-1.34 10-3.004 14.001-5.001l255-153.002 255 153.002c9.333 5.333 19.333 7.663 30 6.997 10.667 0 20.667-3.337 30.002-10.001 8.661-6.665 14.669-15.002 17.997-24.994 4.002-10.001 5.001-20.335 3.004-31.002l-66.003-290.003 222.999-196c8.67-7.334 14.336-16.334 16.998-27 2.671-10.667 2.338-21-0.998-31zM2106.112 371.667c-3.328-10.667-9.335-19.333-17.997-26-8.004-6.666-17.331-10.667-27.998-12l-296.004-26-117.001-274c-4.002-10-10.667-18-20.002-24-9.327-6-19.328-9-29.995-9s-20.668 3-30.003 9c-9.335 6-16 14-20.002 24l-117.001 274-295.996 26c-10.667 1.333-20.335 5.333-29.005 12-7.996 6.667-13.662 15.334-16.998 26-3.328 10-3.661 20.333-0.998 31 2.671 10.667 8.337 19.667 16.998 27l223.002 196-65.997 290.003c-2.005 10.667-1.34 21.001 1.997 31.002 4.002 9.993 10.334 18.33 19.004 24.994 4.668 3.337 9.66 5.666 14.993 7.006 6.007 1.997 11.674 2.995 17.007 2.995 4.668 0 9.327-0.666 13.995-1.997 5.333-1.34 10.001-3.004 14.003-5.001l255.002-153.002 255.002 153.002c9.327 5.333 19.328 7.663 29.995 6.997 10.667 0 20.668-3.337 30.003-10.001 8.661-6.665 14.669-15.002 17.997-24.994 4.002-10.001 5.001-20.335 3.004-31.002l-66.005-290.003 223.002-196c8.67-7.334 14.336-16.334 16.998-27 2.671-10.667 2.338-21-0.998-31zM3191.552 371.667c-3.328-10.667-9.335-19.333-17.997-26-8.004-6.666-17.331-10.667-27.998-12l-296.004-26-117.001-274c-4.002-10-10.667-18-20.002-24-9.327-6-19.328-9-29.995-9s-20.668 3-30.003 9c-9.335 6-16 14-20.002 24l-117.001 274-295.996 26c-10.667 1.333-20.335 5.333-29.005 12-7.996 6.667-13.662 15.334-16.998 26-3.328 10-3.661 20.333-0.998 31 2.671 10.667 8.337 19.667 16.998 27l223.002 196-65.997 290.003c-2.005 10.667-1.34 21.001 1.997 31.002 4.002 9.993 10.334 18.33 19.004 24.994 4.668 3.337 9.66 5.666 14.993 7.006 6.007 1.997 11.674 2.995 17.007 2.995 4.668 0 9.327-0.666 13.995-1.997 5.333-1.34 10.001-3.004 14.003-5.001l255.002-153.002 255.002 153.002c9.327 5.333 19.328 7.663 29.995 6.997 10.667 0 20.668-3.337 30.003-10.001 8.661-6.665 14.669-15.002 17.997-24.994 4.002-10.001 5.001-20.335 3.004-31.002l-66.005-290.003 223.002-196c8.67-7.334 14.336-16.334 16.998-27 2.671-10.667 2.338-21-0.998-31zM4276.992 371.667c-3.337-10.667-9.335-19.333-17.997-26-8.004-6.666-17.34-10.667-28.006-12l-295.996-26-117.001-274c-4.002-10-10.667-18-20.002-24-9.327-6-19.328-9-29.995-9s-20.668 3-30.003 9c-9.335 6-16 14-20.002 24l-117.001 274-295.996 26c-10.667 1.333-20.335 5.333-29.005 12-7.996 6.667-13.662 15.334-16.998 26-3.328 10-3.661 20.333-0.998 31 2.671 10.667 8.337 19.667 16.998 27l223.002 196-65.997 290.003c-2.005 10.667-1.34 21.001 1.997 31.002 4.002 9.993 10.334 18.33 19.004 24.994 4.659 3.337 9.66 5.666 14.993 7.006 6.007 1.997 11.674 2.995 17.007 2.995 4.659 0 9.327-0.666 13.995-1.997 5.333-1.34 10.001-3.004 14.003-5.001l255.002-153.002 254.993 153.002c9.335 5.333 19.337 7.663 30.003 6.997 10.667 0 20.668-3.337 30.003-10.001 8.661-6.665 14.66-15.002 17.997-24.994 4.002-10.001 5.001-20.335 3.004-31.002l-66.005-290.003 223.002-196c8.67-7.334 14.336-16.334 16.998-27 2.671-10.667 2.338-21-0.998-31zM5362.432 371.667c-3.328-10.667-9.335-19.333-17.997-26-8.004-6.666-17.331-10.667-27.998-12l-296.004-26-117.001-274c-4.002-10-10.667-18-20.002-24-9.327-6-19.328-9-29.995-9s-20.668 3-30.003 9c-9.335 6-16 14-20.002 24l-117.001 274-295.996 26c-10.667 1.333-20.335 5.333-29.005 12-7.996 6.667-13.662 15.334-16.998 26-3.328 10-3.661 20.333-0.998 31 2.671 10.667 8.337 19.667 16.998 27l223.002 196-65.997 290.003c-2.005 10.667-1.34 21.001 1.997 31.002 4.002 9.993 10.334 18.33 19.004 24.994 4.668 3.337 9.66 5.666 14.993 7.006 6.007 1.997 11.674 2.995 17.007 2.995 4.668 0 9.327-0.666 13.995-1.997 5.333-1.34 10.001-3.004 14.003-5.001l255.002-153.002 255.002 153.002c9.327 5.333 19.328 7.663 29.995 6.997 10.667 0 20.668-3.337 30.003-10.001 8.661-6.665 14.669-15.002 17.997-24.994 4.002-10.001 5.001-20.335 3.004-31.002l-66.005-290.003 223.002-196c8.67-7.334 14.336-16.334 16.998-27 2.671-10.667 2.338-21-0.998-31z"></path>
</svg>
