<svg width="13" height="12" viewBox="0 0 13 12" fill="none" xmlns="http://www.w3.org/2000/svg">
<path d="M12.3203 4.35547C12.2812 4.23047 12.2109 4.12891 12.1094 4.05078C12.0156 3.97266 11.9062 3.92578 11.7812 3.91016L8.3125 3.60547L6.94141 0.394531C6.89453 0.277344 6.81641 0.183594 6.70703 0.113281C6.59766 0.0429688 6.48047 0.0078125 6.35547 0.0078125C6.23047 0.0078125 6.11328 0.0429688 6.00391 0.113281C5.89453 0.183594 5.81641 0.277344 5.76953 0.394531L4.39844 3.60547L0.929688 3.91016C0.804688 3.92578 0.691406 3.97266 0.589844 4.05078C0.496094 4.12891 0.429688 4.23047 0.390625 4.35547C0.351562 4.47266 0.347656 4.59375 0.378906 4.71875C0.410156 4.84375 0.476562 4.94922 0.578125 5.03516L3.19141 7.33203L2.41797 10.7305C2.39453 10.8555 2.40234 10.9766 2.44141 11.0938C2.48828 11.2109 2.5625 11.3086 2.66406 11.3867C2.71875 11.4258 2.77734 11.4531 2.83984 11.4688C2.91016 11.4922 2.97656 11.5039 3.03906 11.5039C3.09375 11.5039 3.14844 11.4961 3.20312 11.4805C3.26562 11.4648 3.32031 11.4453 3.36719 11.4219L6.35547 9.62891L9.34375 11.4219C9.45312 11.4844 9.57031 11.5117 9.69531 11.5039C9.82031 11.5039 9.9375 11.4648 10.0469 11.3867C10.1484 11.3086 10.2188 11.2109 10.2578 11.0938C10.3047 10.9766 10.3164 10.8555 10.293 10.7305L9.51953 7.33203L12.1328 5.03516C12.2344 4.94922 12.3008 4.84375 12.332 4.71875C12.3633 4.59375 12.3594 4.47266 12.3203 4.35547Z" fill="#C8C8C8"/>
</svg>
